<?xml version="1.0" standalone="no"?><!DOCTYPE svg PUBLIC "-//W3C//DTD SVG 1.1//EN" "http://www.w3.org/Graphics/SVG/1.1/DTD/svg11.dtd"><svg t="1676988203730" class="icon" viewBox="0 0 1024 1024" version="1.1" xmlns="http://www.w3.org/2000/svg" p-id="2849" xmlns:xlink="http://www.w3.org/1999/xlink" width="200" height="200"><path d="M162.133333 776.533333c-17.066667 0-34.133333 12.8-34.133333 34.133334 0 17.066667 17.066667 29.866667 34.133333 34.133333 85.333333 4.266667 170.666667 38.4 230.4 98.133333 12.8 12.8 34.133333 12.8 46.933334 0 12.8-12.8 12.8-34.133333 4.266666-46.933333-72.533333-76.8-174.933333-119.466667-281.6-119.466667z m704-183.466666c72.533333-119.466667 85.333333-264.533333 42.666667-396.8-4.266667-12.8-17.066667-21.333333-29.866667-21.333334h-8.533333c-64 0-123.733333 12.8-183.466667 38.4-29.866667-64-76.8-119.466667-132.266666-162.133333l-4.266667-4.266667c-12.8-4.266667-25.6-4.266667-34.133333 0-4.266667 0-4.266667 4.266667-8.533334 4.266667-55.466667 42.666667-102.4 98.133333-132.266666 162.133333-59.733333-25.6-119.466667-38.4-179.2-34.133333h-12.8c-12.8 0-21.333333 8.533333-29.866667 17.066667-46.933333 132.266667-29.866667 277.333333 42.666667 396.8 55.466667 102.4 157.866667 170.666667 273.066666 187.733333h29.866667v166.4c0 17.066667 17.066667 34.133333 34.133333 34.133333s29.866667-12.8 34.133334-34.133333v-166.4h29.866666c110.933333-17.066667 213.333333-85.333333 268.8-187.733333z m34.133334 183.466666c-106.666667 0-209.066667 46.933333-281.6 119.466667-12.8 12.8-12.8 34.133333 0 46.933333 12.8 12.8 34.133333 12.8 46.933333 0 64-59.733333 145.066667-98.133333 230.4-98.133333 17.066667 0 34.133333-17.066667 34.133333-34.133333 4.266667-21.333333-12.8-34.133333-29.866666-34.133334z" p-id="2850"></path></svg>